<svg width="399" height="399" viewBox="0 0 399 399" fill="none" xmlns="http://www.w3.org/2000/svg">
<path d="M76.0117 156.886H295.988V324.024H76.0117V156.886Z" fill="#D3FAC7"/>
<path d="M166.59 142.328C166.59 186.1 130.865 221.584 86.7952 221.584C42.7255 221.584 7 186.1 7 142.328C7 98.5564 42.7255 63.0723 86.7952 63.0723C130.865 63.0723 166.59 98.5564 166.59 142.328Z" fill="#D3FAC7"/>
<path d="M265.795 111.596C265.795 155.666 230.07 191.392 186 191.392C141.931 191.392 106.205 155.666 106.205 111.596C106.205 67.5267 141.931 31.8012 186 31.8012C230.07 31.8012 265.795 67.5267 265.795 111.596Z" fill="#D3FAC7"/>
<path d="M365.001 142.328C365.001 186.1 329.275 221.584 285.205 221.584C241.136 221.584 205.41 186.1 205.41 142.328C205.41 98.5563 241.136 63.0722 285.205 63.0722C329.275 63.0722 365.001 98.5563 365.001 142.328Z" fill="#D3FAC7"/>
<path d="M76.0117 312.163H295.988V333.313C295.988 337.116 292.91 340.199 289.113 340.199H82.886C79.0894 340.199 76.0117 337.116 76.0117 333.313V312.163Z" fill="#8499B1"/>
<path d="M141.789 132.806C141.789 127.048 146.375 122.38 152.033 122.38C157.691 122.38 162.277 127.048 162.277 132.806V180.965C162.277 186.724 157.691 191.392 152.033 191.392C146.375 191.392 141.789 186.724 141.789 180.965V132.806Z" fill="#8499B1"/>
<path d="M175.217 132.806C175.217 127.048 180.045 122.38 186 122.38C191.955 122.38 196.783 127.048 196.783 132.806V180.965C196.783 186.724 191.955 191.392 186 191.392C180.045 191.392 175.217 186.724 175.217 180.965V132.806Z" fill="#8499B1"/>
<path d="M209.723 132.806C209.723 127.048 214.309 122.38 219.967 122.38C225.624 122.38 230.211 127.048 230.211 132.806V180.965C230.211 186.724 225.624 191.392 219.967 191.392C214.309 191.392 209.723 186.724 209.723 180.965V132.806Z" fill="#8499B1"/>
<path fill-rule="evenodd" clip-rule="evenodd" d="M276.804 63.5063C279.565 63.2194 282.368 63.0723 285.205 63.0723C320.759 63.0723 350.882 86.1678 361.196 118.078C358.435 118.365 355.632 118.512 352.795 118.512C317.241 118.512 287.118 95.4165 276.804 63.5063Z" fill="#EC9192"/>
</svg>
