<svg width="343" height="333" viewBox="0 0 343 333" fill="none" xmlns="http://www.w3.org/2000/svg">
<path d="M165.926 164.974C197.498 164.974 223.093 140.126 223.093 109.474C223.093 78.8219 197.498 53.9737 165.926 53.9737C134.354 53.9737 108.759 78.8219 108.759 109.474C108.759 140.126 134.354 164.974 165.926 164.974Z" stroke="#F3DFA2" stroke-width="12.5417" stroke-linecap="round" stroke-linejoin="round"/>
<path d="M230.954 278.61C238.457 278.454 245.788 276.389 252.211 272.62C258.635 268.851 263.927 263.511 267.559 257.134C271.19 250.757 273.034 243.567 272.905 236.281C272.777 228.995 270.68 221.87 266.825 215.617C256.653 200.029 242.586 187.189 225.933 178.293C209.279 169.397 190.58 164.732 171.572 164.732C152.564 164.732 133.864 169.397 117.21 178.293C100.557 187.189 86.4903 200.029 76.3176 215.617C72.4631 221.87 70.3664 228.995 70.2377 236.281C70.1091 243.567 71.9525 250.757 75.584 257.134C79.2156 263.511 84.5078 268.851 90.9316 272.62C97.3554 276.389 104.686 278.454 112.189 278.61H230.954Z" stroke="#F3DFA2" stroke-width="12.5417" stroke-linecap="round" stroke-linejoin="round"/>
</svg>
