<svg width="500" height="500" viewBox="0 0 500 500" fill="none" xmlns="http://www.w3.org/2000/svg">
<path d="M285.208 303.334L352.083 272.917L418.75 303.334M285.208 303.334L352.083 333.75M285.208 303.334V387.917L352.083 418.334L418.75 387.917V303.334M352.083 333.75L418.75 303.334M352.083 333.75V414.167M310.417 437.5H122.917C111.866 437.5 101.268 433.11 93.4539 425.296C85.6398 417.482 81.25 406.884 81.25 395.833V104.167C81.25 93.116 85.6398 82.5182 93.4539 74.7042C101.268 66.8902 111.866 62.5 122.917 62.5H310.417C321.467 62.5 332.065 66.8902 339.879 74.7042C347.694 82.5182 352.083 93.116 352.083 104.167V233.959M143.75 137.5H289.583M143.75 205.209H289.583M143.75 272.917H235.625" stroke="#EC9192" stroke-width="10" stroke-linecap="round" stroke-linejoin="round"/>
</svg>
