<svg width="344" height="404" viewBox="0 0 344 404" fill="none" xmlns="http://www.w3.org/2000/svg">
<path d="M79.5313 398.75C70.9532 398.75 62.7263 395.342 56.6606 389.277C50.595 383.211 47.1875 374.984 47.1875 366.406L61.25 190.625H99.2187L113.281 366.406C113.285 370.775 112.405 375.099 110.692 379.117C108.979 383.136 106.47 386.766 103.316 389.789C100.162 392.811 96.4288 395.163 92.3409 396.704C88.253 398.244 83.8956 398.94 79.5313 398.75Z" stroke="#EC9192" stroke-width="10" stroke-linecap="round" stroke-linejoin="round"/>
<path d="M79.5313 190.625C120.694 190.625 154.062 149.072 154.062 97.8126C154.062 46.5537 120.694 5 79.5313 5C38.3688 5 5 46.5537 5 97.8126C5 149.072 38.3688 190.625 79.5313 190.625Z" stroke="#EC9192" stroke-width="10" stroke-linecap="round" stroke-linejoin="round"/>
<path d="M275 398.75C266.422 398.75 258.195 395.343 252.129 389.277C246.064 383.212 242.656 374.985 242.656 366.407L256.719 190.625H294.687L308.75 366.407C308.754 370.775 307.873 375.099 306.161 379.118C304.448 383.137 301.939 386.767 298.785 389.789C295.631 392.812 291.898 395.164 287.81 396.704C283.722 398.244 279.364 398.94 275 398.75Z" stroke="#EC9192" stroke-width="10" stroke-linecap="round" stroke-linejoin="round"/>
<path d="M338.281 127.344C337.914 144.256 330.936 160.35 318.845 172.179C306.753 184.008 290.509 190.629 273.594 190.625C256.811 190.625 240.715 183.958 228.847 172.091C216.98 160.223 210.312 144.127 210.312 127.344H338.281Z" stroke="#EC9192" stroke-width="10" stroke-linecap="round" stroke-linejoin="round"/>
<path d="M210.312 10.625V127.344" stroke="#EC9192" stroke-width="10" stroke-linecap="round" stroke-linejoin="round"/>
<path d="M273.594 10.625V124.531" stroke="#EC9192" stroke-width="10" stroke-linecap="round" stroke-linejoin="round"/>
<path d="M338.281 10.625V127.344" stroke="#EC9192" stroke-width="10" stroke-linecap="round" stroke-linejoin="round"/>
</svg>
