<svg width="310" height="300" viewBox="0 0 310 300" fill="none" xmlns="http://www.w3.org/2000/svg">
<path d="M68.5875 62.4999H29.8375M71.6875 62.4999L99.5876 160.5C101.916 168.228 106.753 175.026 113.382 179.888C120.012 184.75 128.082 187.419 136.4 187.5H249.292V62.4999H71.6875ZM159.004 231.25C159.004 241.605 150.33 250 139.629 250C128.929 250 120.254 241.605 120.254 231.25C120.254 220.895 128.929 212.5 139.629 212.5C150.33 212.5 159.004 220.895 159.004 231.25ZM249.421 231.25C249.421 241.605 240.746 250 230.046 250C219.345 250 210.671 241.605 210.671 231.25C210.671 220.895 219.345 212.5 230.046 212.5C240.746 212.5 249.421 220.895 249.421 231.25Z" stroke="#EC9192" stroke-width="10" stroke-linecap="round" stroke-linejoin="round"/>
</svg>
